<svg width="16" height="17" viewBox="0 0 16 17" fill="none" xmlns="http://www.w3.org/2000/svg">
<path d="M0 7.73677C0 6.34152 1.19391 5.21045 2.66667 5.21045H13.3333C14.8061 5.21045 16 6.34152 16 7.73676V14.4736C16 15.8689 14.8061 16.9999 13.3333 16.9999H2.66667C1.19391 16.9999 0 15.8689 0 14.4736V7.73677Z" fill="#6C5ECF"/>
<path d="M4.44434 5.21053C4.44434 3.52632 4.88878 1 7.99989 1C11.111 1 11.5554 3.52632 11.5555 5.21053" stroke="#6C5ECF" stroke-width="2" stroke-linecap="round" stroke-linejoin="round"/>
<path d="M9.27772 10.2631C9.27772 10.892 8.73146 11.4473 7.99995 11.4473C7.26843 11.4473 6.72217 10.892 6.72217 10.2631C6.72217 9.63417 7.26843 9.07886 7.99995 9.07886C8.73146 9.07886 9.27772 9.63417 9.27772 10.2631Z" fill="#6C5ECF" stroke="#2B2937"/>
<path d="M8 12.7895V10.2632" stroke="#2B2937" stroke-width="2" stroke-linecap="round" stroke-linejoin="round"/>
</svg>
