<svg width="16" height="16" viewBox="0 0 16 16" fill="none" xmlns="http://www.w3.org/2000/svg">
<path d="M8 12.4444C10.4546 12.4444 12.4444 10.4546 12.4444 8C12.4444 5.5454 10.4546 3.55556 8 3.55556C5.5454 3.55556 3.55556 5.5454 3.55556 8C3.55556 10.4546 5.5454 12.4444 8 12.4444Z" fill="#6C5ECF"/>
<path fill-rule="evenodd" clip-rule="evenodd" d="M16 8C16 12.4183 12.4183 16 8 16C3.58172 16 0 12.4183 0 8C0 3.58172 3.58172 0 8 0C12.4183 0 16 3.58172 16 8ZM14.2222 8C14.2222 11.4364 11.4364 14.2222 8 14.2222C4.56356 14.2222 1.77778 11.4364 1.77778 8C1.77778 4.56356 4.56356 1.77778 8 1.77778C11.4364 1.77778 14.2222 4.56356 14.2222 8Z" fill="#6C5ECF"/>
</svg>
